<mxfile host="app.diagrams.net" agent="Mozilla/5.0 (Macintosh; Intel Mac OS X 10_15_7) AppleWebKit/537.36 (KHTML, like Gecko) Chrome/128.0.0.0 Safari/537.36" version="27.2.0">
  <diagram name="Page-1" id="v9B5prFpcnAmfBxIz_qa">
    <mxGraphModel grid="1" page="1" gridSize="10" guides="1" tooltips="1" connect="1" arrows="1" fold="1" pageScale="1" pageWidth="850" pageHeight="1100" math="0" shadow="0">
      <root>
        <mxCell id="0" />
        <mxCell id="1" parent="0" />
        <mxCell id="PXGm19Z-OeBb5GkZ7l5b-1" value="Main Screen" style="swimlane;whiteSpace=wrap;html=1;" vertex="1" parent="1">
          <mxGeometry x="80" y="120" width="720" height="640" as="geometry" />
        </mxCell>
        <mxCell id="PXGm19Z-OeBb5GkZ7l5b-2" value="&lt;i&gt;Search for a table or data catalog&lt;/i&gt;" style="rounded=0;whiteSpace=wrap;html=1;fillColor=#f5f5f5;fontColor=#333333;strokeColor=#666666;" vertex="1" parent="PXGm19Z-OeBb5GkZ7l5b-1">
          <mxGeometry x="40" y="40" width="640" height="30" as="geometry" />
        </mxCell>
        <mxCell id="PXGm19Z-OeBb5GkZ7l5b-6" value="Advanced Filters" style="swimlane;whiteSpace=wrap;html=1;startSize=30;fillColor=#f5f5f5;fontColor=#333333;strokeColor=#666666;" collapsed="1" vertex="1" parent="PXGm19Z-OeBb5GkZ7l5b-1">
          <mxGeometry x="40" y="80" width="640" height="30" as="geometry">
            <mxRectangle x="40" y="80" width="640" height="300" as="alternateBounds" />
          </mxGeometry>
        </mxCell>
        <mxCell id="PXGm19Z-OeBb5GkZ7l5b-7" value="Catalog Name" style="rounded=0;whiteSpace=wrap;html=1;fontStyle=2" vertex="1" parent="PXGm19Z-OeBb5GkZ7l5b-6">
          <mxGeometry x="40" y="40" width="270" height="30" as="geometry" />
        </mxCell>
        <mxCell id="PXGm19Z-OeBb5GkZ7l5b-8" value="Table Name" style="rounded=0;whiteSpace=wrap;html=1;fontStyle=2" vertex="1" parent="PXGm19Z-OeBb5GkZ7l5b-6">
          <mxGeometry x="330" y="40" width="270" height="30" as="geometry" />
        </mxCell>
        <mxCell id="PXGm19Z-OeBb5GkZ7l5b-9" value="Catalog Description" style="rounded=0;whiteSpace=wrap;html=1;fontStyle=2" vertex="1" parent="PXGm19Z-OeBb5GkZ7l5b-6">
          <mxGeometry x="40" y="80" width="270" height="30" as="geometry" />
        </mxCell>
        <mxCell id="PXGm19Z-OeBb5GkZ7l5b-10" value="Table Description" style="rounded=0;whiteSpace=wrap;html=1;fontStyle=2" vertex="1" parent="PXGm19Z-OeBb5GkZ7l5b-6">
          <mxGeometry x="330" y="80" width="270" height="30" as="geometry" />
        </mxCell>
        <mxCell id="PXGm19Z-OeBb5GkZ7l5b-15" value="Table tags" style="swimlane;whiteSpace=wrap;html=1;startSize=30;" collapsed="1" vertex="1" parent="PXGm19Z-OeBb5GkZ7l5b-6">
          <mxGeometry x="330" y="120" width="270" height="30" as="geometry">
            <mxRectangle x="330" y="120" width="270" height="120" as="alternateBounds" />
          </mxGeometry>
        </mxCell>
        <mxCell id="PXGm19Z-OeBb5GkZ7l5b-16" value="Catalog Owner" style="swimlane;whiteSpace=wrap;html=1;startSize=30;" vertex="1" parent="PXGm19Z-OeBb5GkZ7l5b-6">
          <mxGeometry x="40" y="160" width="270" height="120" as="geometry">
            <mxRectangle x="40" y="160" width="270" height="30" as="alternateBounds" />
          </mxGeometry>
        </mxCell>
        <mxCell id="PXGm19Z-OeBb5GkZ7l5b-14" value="Catalog tags" style="swimlane;whiteSpace=wrap;html=1;startSize=30;" collapsed="1" vertex="1" parent="PXGm19Z-OeBb5GkZ7l5b-6">
          <mxGeometry x="40" y="120" width="270" height="30" as="geometry">
            <mxRectangle x="40" y="120" width="270" height="120" as="alternateBounds" />
          </mxGeometry>
        </mxCell>
        <mxCell id="PXGm19Z-OeBb5GkZ7l5b-21" value="" style="triangle;whiteSpace=wrap;html=1;rotation=-180;" vertex="1" parent="PXGm19Z-OeBb5GkZ7l5b-6">
          <mxGeometry x="618" y="5" width="16" height="20" as="geometry" />
        </mxCell>
        <mxCell id="PXGm19Z-OeBb5GkZ7l5b-17" value="&lt;h2&gt;Certified Data Catalogs&lt;/h2&gt;" style="text;html=1;align=left;verticalAlign=middle;resizable=0;points=[];autosize=1;strokeColor=none;fillColor=none;" vertex="1" parent="PXGm19Z-OeBb5GkZ7l5b-1">
          <mxGeometry x="40" y="117" width="220" height="60" as="geometry" />
        </mxCell>
        <mxCell id="PXGm19Z-OeBb5GkZ7l5b-18" value="" style="endArrow=none;html=1;rounded=0;strokeWidth=2;" edge="1" parent="PXGm19Z-OeBb5GkZ7l5b-1">
          <mxGeometry width="50" height="50" relative="1" as="geometry">
            <mxPoint x="40" y="160" as="sourcePoint" />
            <mxPoint x="680" y="160" as="targetPoint" />
          </mxGeometry>
        </mxCell>
        <mxCell id="PXGm19Z-OeBb5GkZ7l5b-19" value="&lt;h2&gt;Under Development&lt;/h2&gt;" style="text;html=1;align=left;verticalAlign=middle;resizable=0;points=[];autosize=1;strokeColor=none;fillColor=none;" vertex="1" parent="PXGm19Z-OeBb5GkZ7l5b-1">
          <mxGeometry x="40" y="360" width="190" height="60" as="geometry" />
        </mxCell>
        <mxCell id="PXGm19Z-OeBb5GkZ7l5b-20" value="" style="endArrow=none;html=1;rounded=0;strokeWidth=2;" edge="1" parent="PXGm19Z-OeBb5GkZ7l5b-1">
          <mxGeometry width="50" height="50" relative="1" as="geometry">
            <mxPoint x="40" y="403" as="sourcePoint" />
            <mxPoint x="680" y="403" as="targetPoint" />
          </mxGeometry>
        </mxCell>
        <mxCell id="PXGm19Z-OeBb5GkZ7l5b-22" value="" style="triangle;whiteSpace=wrap;html=1;rotation=90;" vertex="1" parent="PXGm19Z-OeBb5GkZ7l5b-1">
          <mxGeometry x="653" y="80" width="20" height="30" as="geometry" />
        </mxCell>
        <mxCell id="PXGm19Z-OeBb5GkZ7l5b-23" value="Digital" style="swimlane;whiteSpace=wrap;html=1;fillColor=#d5e8d4;strokeColor=#82b366;" vertex="1" parent="PXGm19Z-OeBb5GkZ7l5b-1">
          <mxGeometry x="40" y="177" width="200" height="183" as="geometry" />
        </mxCell>
        <mxCell id="PXGm19Z-OeBb5GkZ7l5b-92" value="" style="rounded=0;whiteSpace=wrap;html=1;" vertex="1" parent="PXGm19Z-OeBb5GkZ7l5b-23">
          <mxGeometry x="10" y="91.5" width="180" height="48.5" as="geometry" />
        </mxCell>
        <mxCell id="PXGm19Z-OeBb5GkZ7l5b-87" value="Owner:" style="text;html=1;align=left;verticalAlign=middle;resizable=0;points=[];autosize=1;strokeColor=none;fillColor=none;fontSize=10;" vertex="1" parent="PXGm19Z-OeBb5GkZ7l5b-23">
          <mxGeometry x="10" y="23" width="60" height="30" as="geometry" />
        </mxCell>
        <mxCell id="PXGm19Z-OeBb5GkZ7l5b-89" value="Last Change:" style="text;html=1;align=left;verticalAlign=middle;resizable=0;points=[];autosize=1;strokeColor=none;fillColor=none;fontSize=10;" vertex="1" parent="PXGm19Z-OeBb5GkZ7l5b-23">
          <mxGeometry x="10" y="43" width="80" height="30" as="geometry" />
        </mxCell>
        <mxCell id="PXGm19Z-OeBb5GkZ7l5b-90" value="Number of Tables:" style="text;html=1;align=left;verticalAlign=middle;resizable=0;points=[];autosize=1;strokeColor=none;fillColor=none;fontSize=10;" vertex="1" parent="PXGm19Z-OeBb5GkZ7l5b-23">
          <mxGeometry x="10" y="61.5" width="100" height="30" as="geometry" />
        </mxCell>
        <mxCell id="PXGm19Z-OeBb5GkZ7l5b-91" value="Description" style="text;html=1;align=left;verticalAlign=middle;resizable=0;points=[];autosize=1;strokeColor=none;fillColor=none;fontSize=10;" vertex="1" parent="PXGm19Z-OeBb5GkZ7l5b-23">
          <mxGeometry x="13" y="87.5" width="70" height="30" as="geometry" />
        </mxCell>
        <mxCell id="PXGm19Z-OeBb5GkZ7l5b-93" value="Details" style="rounded=0;whiteSpace=wrap;html=1;fillColor=#f5f5f5;fontColor=#333333;strokeColor=#666666;" vertex="1" parent="PXGm19Z-OeBb5GkZ7l5b-23">
          <mxGeometry x="100" y="151.5" width="90" height="23" as="geometry" />
        </mxCell>
        <mxCell id="PXGm19Z-OeBb5GkZ7l5b-94" value="" style="html=1;verticalLabelPosition=bottom;labelBackgroundColor=#ffffff;verticalAlign=top;shadow=0;dashed=0;strokeWidth=2;shape=mxgraph.ios7.misc.scroll_(vertical);fillColor=#a0a0a0;" vertex="1" parent="PXGm19Z-OeBb5GkZ7l5b-23">
          <mxGeometry x="182" y="94.5" width="6" height="15.5" as="geometry" />
        </mxCell>
        <mxCell id="PXGm19Z-OeBb5GkZ7l5b-24" value="Marketing" style="swimlane;whiteSpace=wrap;html=1;fillColor=#d5e8d4;strokeColor=#82b366;" vertex="1" parent="PXGm19Z-OeBb5GkZ7l5b-1">
          <mxGeometry x="260" y="177" width="200" height="183" as="geometry" />
        </mxCell>
        <mxCell id="PXGm19Z-OeBb5GkZ7l5b-95" value="" style="rounded=0;whiteSpace=wrap;html=1;" vertex="1" parent="PXGm19Z-OeBb5GkZ7l5b-24">
          <mxGeometry x="10" y="91.5" width="180" height="48.5" as="geometry" />
        </mxCell>
        <mxCell id="PXGm19Z-OeBb5GkZ7l5b-96" value="Owner:" style="text;html=1;align=left;verticalAlign=middle;resizable=0;points=[];autosize=1;strokeColor=none;fillColor=none;fontSize=10;" vertex="1" parent="PXGm19Z-OeBb5GkZ7l5b-24">
          <mxGeometry x="10" y="23" width="60" height="30" as="geometry" />
        </mxCell>
        <mxCell id="PXGm19Z-OeBb5GkZ7l5b-97" value="Last Change:" style="text;html=1;align=left;verticalAlign=middle;resizable=0;points=[];autosize=1;strokeColor=none;fillColor=none;fontSize=10;" vertex="1" parent="PXGm19Z-OeBb5GkZ7l5b-24">
          <mxGeometry x="10" y="43" width="80" height="30" as="geometry" />
        </mxCell>
        <mxCell id="PXGm19Z-OeBb5GkZ7l5b-98" value="Number of Tables:" style="text;html=1;align=left;verticalAlign=middle;resizable=0;points=[];autosize=1;strokeColor=none;fillColor=none;fontSize=10;" vertex="1" parent="PXGm19Z-OeBb5GkZ7l5b-24">
          <mxGeometry x="10" y="61.5" width="100" height="30" as="geometry" />
        </mxCell>
        <mxCell id="PXGm19Z-OeBb5GkZ7l5b-99" value="Description" style="text;html=1;align=left;verticalAlign=middle;resizable=0;points=[];autosize=1;strokeColor=none;fillColor=none;fontSize=10;" vertex="1" parent="PXGm19Z-OeBb5GkZ7l5b-24">
          <mxGeometry x="13" y="87.5" width="70" height="30" as="geometry" />
        </mxCell>
        <mxCell id="PXGm19Z-OeBb5GkZ7l5b-100" value="Details" style="rounded=0;whiteSpace=wrap;html=1;fillColor=#f5f5f5;fontColor=#333333;strokeColor=#666666;" vertex="1" parent="PXGm19Z-OeBb5GkZ7l5b-24">
          <mxGeometry x="100" y="151.5" width="90" height="23" as="geometry" />
        </mxCell>
        <mxCell id="PXGm19Z-OeBb5GkZ7l5b-101" value="" style="html=1;verticalLabelPosition=bottom;labelBackgroundColor=#ffffff;verticalAlign=top;shadow=0;dashed=0;strokeWidth=2;shape=mxgraph.ios7.misc.scroll_(vertical);fillColor=#a0a0a0;" vertex="1" parent="PXGm19Z-OeBb5GkZ7l5b-24">
          <mxGeometry x="182" y="94.5" width="6" height="15.5" as="geometry" />
        </mxCell>
        <mxCell id="PXGm19Z-OeBb5GkZ7l5b-25" value="Ops" style="swimlane;whiteSpace=wrap;html=1;fillColor=#d5e8d4;strokeColor=#82b366;" vertex="1" parent="PXGm19Z-OeBb5GkZ7l5b-1">
          <mxGeometry x="480" y="177" width="200" height="183" as="geometry" />
        </mxCell>
        <mxCell id="PXGm19Z-OeBb5GkZ7l5b-102" value="" style="rounded=0;whiteSpace=wrap;html=1;" vertex="1" parent="PXGm19Z-OeBb5GkZ7l5b-25">
          <mxGeometry x="10" y="91.5" width="180" height="48.5" as="geometry" />
        </mxCell>
        <mxCell id="PXGm19Z-OeBb5GkZ7l5b-103" value="Owner:" style="text;html=1;align=left;verticalAlign=middle;resizable=0;points=[];autosize=1;strokeColor=none;fillColor=none;fontSize=10;" vertex="1" parent="PXGm19Z-OeBb5GkZ7l5b-25">
          <mxGeometry x="10" y="23" width="60" height="30" as="geometry" />
        </mxCell>
        <mxCell id="PXGm19Z-OeBb5GkZ7l5b-104" value="Last Change:" style="text;html=1;align=left;verticalAlign=middle;resizable=0;points=[];autosize=1;strokeColor=none;fillColor=none;fontSize=10;" vertex="1" parent="PXGm19Z-OeBb5GkZ7l5b-25">
          <mxGeometry x="10" y="43" width="80" height="30" as="geometry" />
        </mxCell>
        <mxCell id="PXGm19Z-OeBb5GkZ7l5b-105" value="Number of Tables:" style="text;html=1;align=left;verticalAlign=middle;resizable=0;points=[];autosize=1;strokeColor=none;fillColor=none;fontSize=10;" vertex="1" parent="PXGm19Z-OeBb5GkZ7l5b-25">
          <mxGeometry x="10" y="61.5" width="100" height="30" as="geometry" />
        </mxCell>
        <mxCell id="PXGm19Z-OeBb5GkZ7l5b-106" value="Description" style="text;html=1;align=left;verticalAlign=middle;resizable=0;points=[];autosize=1;strokeColor=none;fillColor=none;fontSize=10;" vertex="1" parent="PXGm19Z-OeBb5GkZ7l5b-25">
          <mxGeometry x="13" y="87.5" width="70" height="30" as="geometry" />
        </mxCell>
        <mxCell id="PXGm19Z-OeBb5GkZ7l5b-107" value="Details" style="rounded=0;whiteSpace=wrap;html=1;fillColor=#f5f5f5;fontColor=#333333;strokeColor=#666666;" vertex="1" parent="PXGm19Z-OeBb5GkZ7l5b-25">
          <mxGeometry x="100" y="151.5" width="90" height="23" as="geometry" />
        </mxCell>
        <mxCell id="PXGm19Z-OeBb5GkZ7l5b-108" value="" style="html=1;verticalLabelPosition=bottom;labelBackgroundColor=#ffffff;verticalAlign=top;shadow=0;dashed=0;strokeWidth=2;shape=mxgraph.ios7.misc.scroll_(vertical);fillColor=#a0a0a0;" vertex="1" parent="PXGm19Z-OeBb5GkZ7l5b-25">
          <mxGeometry x="182" y="94.5" width="6" height="15.5" as="geometry" />
        </mxCell>
        <mxCell id="PXGm19Z-OeBb5GkZ7l5b-26" value="Quality Control" style="swimlane;whiteSpace=wrap;html=1;fillColor=#f8cecc;strokeColor=#b85450;" vertex="1" parent="PXGm19Z-OeBb5GkZ7l5b-1">
          <mxGeometry x="40" y="420" width="200" height="183" as="geometry" />
        </mxCell>
        <mxCell id="PXGm19Z-OeBb5GkZ7l5b-116" value="" style="rounded=0;whiteSpace=wrap;html=1;" vertex="1" parent="PXGm19Z-OeBb5GkZ7l5b-26">
          <mxGeometry x="10" y="92" width="180" height="48.5" as="geometry" />
        </mxCell>
        <mxCell id="PXGm19Z-OeBb5GkZ7l5b-117" value="Owner:" style="text;html=1;align=left;verticalAlign=middle;resizable=0;points=[];autosize=1;strokeColor=none;fillColor=none;fontSize=10;" vertex="1" parent="PXGm19Z-OeBb5GkZ7l5b-26">
          <mxGeometry x="10" y="23.5" width="60" height="30" as="geometry" />
        </mxCell>
        <mxCell id="PXGm19Z-OeBb5GkZ7l5b-118" value="Last Change:" style="text;html=1;align=left;verticalAlign=middle;resizable=0;points=[];autosize=1;strokeColor=none;fillColor=none;fontSize=10;" vertex="1" parent="PXGm19Z-OeBb5GkZ7l5b-26">
          <mxGeometry x="10" y="43.5" width="80" height="30" as="geometry" />
        </mxCell>
        <mxCell id="PXGm19Z-OeBb5GkZ7l5b-119" value="Number of Tables:" style="text;html=1;align=left;verticalAlign=middle;resizable=0;points=[];autosize=1;strokeColor=none;fillColor=none;fontSize=10;" vertex="1" parent="PXGm19Z-OeBb5GkZ7l5b-26">
          <mxGeometry x="10" y="62" width="100" height="30" as="geometry" />
        </mxCell>
        <mxCell id="PXGm19Z-OeBb5GkZ7l5b-120" value="Description" style="text;html=1;align=left;verticalAlign=middle;resizable=0;points=[];autosize=1;strokeColor=none;fillColor=none;fontSize=10;" vertex="1" parent="PXGm19Z-OeBb5GkZ7l5b-26">
          <mxGeometry x="13" y="88" width="70" height="30" as="geometry" />
        </mxCell>
        <mxCell id="PXGm19Z-OeBb5GkZ7l5b-121" value="Details" style="rounded=0;whiteSpace=wrap;html=1;fillColor=#f5f5f5;fontColor=#333333;strokeColor=#666666;" vertex="1" parent="PXGm19Z-OeBb5GkZ7l5b-26">
          <mxGeometry x="100" y="152" width="90" height="23" as="geometry" />
        </mxCell>
        <mxCell id="PXGm19Z-OeBb5GkZ7l5b-122" value="" style="html=1;verticalLabelPosition=bottom;labelBackgroundColor=#ffffff;verticalAlign=top;shadow=0;dashed=0;strokeWidth=2;shape=mxgraph.ios7.misc.scroll_(vertical);fillColor=#a0a0a0;" vertex="1" parent="PXGm19Z-OeBb5GkZ7l5b-26">
          <mxGeometry x="182" y="95" width="6" height="15.5" as="geometry" />
        </mxCell>
        <mxCell id="PXGm19Z-OeBb5GkZ7l5b-27" value="Pricing" style="swimlane;whiteSpace=wrap;html=1;fillColor=#f8cecc;strokeColor=#b85450;" vertex="1" parent="PXGm19Z-OeBb5GkZ7l5b-1">
          <mxGeometry x="260" y="420" width="200" height="183" as="geometry" />
        </mxCell>
        <mxCell id="PXGm19Z-OeBb5GkZ7l5b-109" value="" style="rounded=0;whiteSpace=wrap;html=1;" vertex="1" parent="PXGm19Z-OeBb5GkZ7l5b-27">
          <mxGeometry x="8" y="92" width="180" height="48.5" as="geometry" />
        </mxCell>
        <mxCell id="PXGm19Z-OeBb5GkZ7l5b-110" value="Owner:" style="text;html=1;align=left;verticalAlign=middle;resizable=0;points=[];autosize=1;strokeColor=none;fillColor=none;fontSize=10;" vertex="1" parent="PXGm19Z-OeBb5GkZ7l5b-27">
          <mxGeometry x="8" y="23.5" width="60" height="30" as="geometry" />
        </mxCell>
        <mxCell id="PXGm19Z-OeBb5GkZ7l5b-111" value="Last Change:" style="text;html=1;align=left;verticalAlign=middle;resizable=0;points=[];autosize=1;strokeColor=none;fillColor=none;fontSize=10;" vertex="1" parent="PXGm19Z-OeBb5GkZ7l5b-27">
          <mxGeometry x="8" y="43.5" width="80" height="30" as="geometry" />
        </mxCell>
        <mxCell id="PXGm19Z-OeBb5GkZ7l5b-112" value="Number of Tables:" style="text;html=1;align=left;verticalAlign=middle;resizable=0;points=[];autosize=1;strokeColor=none;fillColor=none;fontSize=10;" vertex="1" parent="PXGm19Z-OeBb5GkZ7l5b-27">
          <mxGeometry x="8" y="62" width="100" height="30" as="geometry" />
        </mxCell>
        <mxCell id="PXGm19Z-OeBb5GkZ7l5b-113" value="Description" style="text;html=1;align=left;verticalAlign=middle;resizable=0;points=[];autosize=1;strokeColor=none;fillColor=none;fontSize=10;" vertex="1" parent="PXGm19Z-OeBb5GkZ7l5b-27">
          <mxGeometry x="11" y="88" width="70" height="30" as="geometry" />
        </mxCell>
        <mxCell id="PXGm19Z-OeBb5GkZ7l5b-114" value="Details" style="rounded=0;whiteSpace=wrap;html=1;fillColor=#f5f5f5;fontColor=#333333;strokeColor=#666666;" vertex="1" parent="PXGm19Z-OeBb5GkZ7l5b-27">
          <mxGeometry x="98" y="152" width="90" height="23" as="geometry" />
        </mxCell>
        <mxCell id="PXGm19Z-OeBb5GkZ7l5b-115" value="" style="html=1;verticalLabelPosition=bottom;labelBackgroundColor=#ffffff;verticalAlign=top;shadow=0;dashed=0;strokeWidth=2;shape=mxgraph.ios7.misc.scroll_(vertical);fillColor=#a0a0a0;" vertex="1" parent="PXGm19Z-OeBb5GkZ7l5b-27">
          <mxGeometry x="180" y="95" width="6" height="15.5" as="geometry" />
        </mxCell>
        <mxCell id="PXGm19Z-OeBb5GkZ7l5b-28" value="Digital Data Catalog - Detail" style="swimlane;whiteSpace=wrap;html=1;fillColor=#d5e8d4;strokeColor=#82b366;startSize=40;fontSize=21;" vertex="1" parent="1">
          <mxGeometry x="1000" y="160" width="680" height="660" as="geometry" />
        </mxCell>
        <mxCell id="PXGm19Z-OeBb5GkZ7l5b-29" value="X" style="ellipse;whiteSpace=wrap;html=1;aspect=fixed;" vertex="1" parent="PXGm19Z-OeBb5GkZ7l5b-28">
          <mxGeometry x="644" y="6" width="30" height="30" as="geometry" />
        </mxCell>
        <mxCell id="PXGm19Z-OeBb5GkZ7l5b-30" value="Description" style="swimlane;whiteSpace=wrap;html=1;" vertex="1" parent="PXGm19Z-OeBb5GkZ7l5b-28">
          <mxGeometry x="40" y="120" width="610" height="200" as="geometry" />
        </mxCell>
        <mxCell id="PXGm19Z-OeBb5GkZ7l5b-31" value="" style="html=1;verticalLabelPosition=bottom;labelBackgroundColor=#ffffff;verticalAlign=top;shadow=0;dashed=0;strokeWidth=2;shape=mxgraph.ios7.misc.scroll_(vertical);fillColor=#a0a0a0;" vertex="1" parent="PXGm19Z-OeBb5GkZ7l5b-30">
          <mxGeometry x="596" y="28.5" width="6" height="80" as="geometry" />
        </mxCell>
        <mxCell id="PXGm19Z-OeBb5GkZ7l5b-32" value="Tables" style="swimlane;whiteSpace=wrap;html=1;" vertex="1" parent="PXGm19Z-OeBb5GkZ7l5b-28">
          <mxGeometry x="40" y="340" width="610" height="150" as="geometry" />
        </mxCell>
        <mxCell id="PXGm19Z-OeBb5GkZ7l5b-33" value="" style="html=1;verticalLabelPosition=bottom;labelBackgroundColor=#ffffff;verticalAlign=top;shadow=0;dashed=0;strokeWidth=2;shape=mxgraph.ios7.misc.scroll_(vertical);fillColor=#a0a0a0;" vertex="1" parent="PXGm19Z-OeBb5GkZ7l5b-32">
          <mxGeometry x="590" y="28.5" width="6" height="80" as="geometry" />
        </mxCell>
        <mxCell id="PXGm19Z-OeBb5GkZ7l5b-34" value="" style="swimlane;fontStyle=0;childLayout=stackLayout;horizontal=1;startSize=0;horizontalStack=0;resizeParent=1;resizeParentMax=0;resizeLast=0;collapsible=0;marginBottom=0;whiteSpace=wrap;html=1;strokeColor=none;fillColor=none;" vertex="1" parent="PXGm19Z-OeBb5GkZ7l5b-32">
          <mxGeometry x="10" y="55" width="200" height="90" as="geometry" />
        </mxCell>
        <mxCell id="PXGm19Z-OeBb5GkZ7l5b-35" value="Cras justo odio" style="text;strokeColor=#DFDFDF;fillColor=#FFFFFF;align=left;verticalAlign=middle;spacingLeft=10;spacingRight=10;overflow=hidden;points=[[0,0.5],[1,0.5]];portConstraint=eastwest;rotatable=0;whiteSpace=wrap;html=1;shape=mxgraph.bootstrap.topButton;rSize=5;fontColor=#333333;" vertex="1" parent="PXGm19Z-OeBb5GkZ7l5b-34">
          <mxGeometry width="200" height="30" as="geometry" />
        </mxCell>
        <mxCell id="PXGm19Z-OeBb5GkZ7l5b-36" value="Dapibus ac facilisis in" style="text;strokeColor=#DFDFDF;fillColor=#FFFFFF;align=left;verticalAlign=middle;spacingLeft=10;spacingRight=10;overflow=hidden;points=[[0,0.5],[1,0.5]];portConstraint=eastwest;rotatable=0;whiteSpace=wrap;html=1;rSize=5;fontColor=#333333;" vertex="1" parent="PXGm19Z-OeBb5GkZ7l5b-34">
          <mxGeometry y="30" width="200" height="30" as="geometry" />
        </mxCell>
        <mxCell id="PXGm19Z-OeBb5GkZ7l5b-37" value="Vestibulum at eros" style="text;strokeColor=#DFDFDF;fillColor=#FFFFFF;align=left;verticalAlign=middle;spacingLeft=10;spacingRight=10;overflow=hidden;points=[[0,0.5],[1,0.5]];portConstraint=eastwest;rotatable=0;whiteSpace=wrap;html=1;shape=mxgraph.bootstrap.bottomButton;rSize=5;fontColor=#333333;" vertex="1" parent="PXGm19Z-OeBb5GkZ7l5b-34">
          <mxGeometry y="60" width="200" height="30" as="geometry" />
        </mxCell>
        <mxCell id="PXGm19Z-OeBb5GkZ7l5b-38" value="" style="swimlane;fontStyle=0;childLayout=stackLayout;horizontal=1;startSize=0;horizontalStack=0;resizeParent=1;resizeParentMax=0;resizeLast=0;collapsible=0;marginBottom=0;whiteSpace=wrap;html=1;strokeColor=none;fillColor=none;" vertex="1" parent="PXGm19Z-OeBb5GkZ7l5b-32">
          <mxGeometry x="210" y="55" width="200" height="90" as="geometry" />
        </mxCell>
        <mxCell id="PXGm19Z-OeBb5GkZ7l5b-39" value="Cras justo odio" style="text;strokeColor=#DFDFDF;fillColor=#FFFFFF;align=left;verticalAlign=middle;spacingLeft=10;spacingRight=10;overflow=hidden;points=[[0,0.5],[1,0.5]];portConstraint=eastwest;rotatable=0;whiteSpace=wrap;html=1;shape=mxgraph.bootstrap.topButton;rSize=5;fontColor=#333333;" vertex="1" parent="PXGm19Z-OeBb5GkZ7l5b-38">
          <mxGeometry width="200" height="30" as="geometry" />
        </mxCell>
        <mxCell id="PXGm19Z-OeBb5GkZ7l5b-40" value="Dapibus ac facilisis in" style="text;strokeColor=#DFDFDF;fillColor=#FFFFFF;align=left;verticalAlign=middle;spacingLeft=10;spacingRight=10;overflow=hidden;points=[[0,0.5],[1,0.5]];portConstraint=eastwest;rotatable=0;whiteSpace=wrap;html=1;rSize=5;fontColor=#333333;" vertex="1" parent="PXGm19Z-OeBb5GkZ7l5b-38">
          <mxGeometry y="30" width="200" height="30" as="geometry" />
        </mxCell>
        <mxCell id="PXGm19Z-OeBb5GkZ7l5b-41" value="Vestibulum at eros" style="text;strokeColor=#DFDFDF;fillColor=#FFFFFF;align=left;verticalAlign=middle;spacingLeft=10;spacingRight=10;overflow=hidden;points=[[0,0.5],[1,0.5]];portConstraint=eastwest;rotatable=0;whiteSpace=wrap;html=1;shape=mxgraph.bootstrap.bottomButton;rSize=5;fontColor=#333333;" vertex="1" parent="PXGm19Z-OeBb5GkZ7l5b-38">
          <mxGeometry y="60" width="200" height="30" as="geometry" />
        </mxCell>
        <mxCell id="PXGm19Z-OeBb5GkZ7l5b-42" value="" style="swimlane;fontStyle=0;childLayout=stackLayout;horizontal=1;startSize=0;horizontalStack=0;resizeParent=1;resizeParentMax=0;resizeLast=0;collapsible=0;marginBottom=0;whiteSpace=wrap;html=1;strokeColor=none;fillColor=none;" vertex="1" parent="PXGm19Z-OeBb5GkZ7l5b-32">
          <mxGeometry x="410" y="55" width="60" height="90" as="geometry" />
        </mxCell>
        <mxCell id="PXGm19Z-OeBb5GkZ7l5b-43" value="10.000" style="text;strokeColor=#DFDFDF;fillColor=#FFFFFF;align=right;verticalAlign=middle;spacingLeft=10;spacingRight=10;overflow=hidden;points=[[0,0.5],[1,0.5]];portConstraint=eastwest;rotatable=0;whiteSpace=wrap;html=1;shape=mxgraph.bootstrap.topButton;rSize=5;fontColor=#333333;" vertex="1" parent="PXGm19Z-OeBb5GkZ7l5b-42">
          <mxGeometry width="60" height="30" as="geometry" />
        </mxCell>
        <mxCell id="PXGm19Z-OeBb5GkZ7l5b-44" value="300" style="text;strokeColor=#DFDFDF;fillColor=#FFFFFF;align=right;verticalAlign=middle;spacingLeft=10;spacingRight=10;overflow=hidden;points=[[0,0.5],[1,0.5]];portConstraint=eastwest;rotatable=0;whiteSpace=wrap;html=1;rSize=5;fontColor=#333333;" vertex="1" parent="PXGm19Z-OeBb5GkZ7l5b-42">
          <mxGeometry y="30" width="60" height="30" as="geometry" />
        </mxCell>
        <mxCell id="PXGm19Z-OeBb5GkZ7l5b-45" value="6.271" style="text;strokeColor=#DFDFDF;fillColor=#FFFFFF;align=right;verticalAlign=middle;spacingLeft=10;spacingRight=10;overflow=hidden;points=[[0,0.5],[1,0.5]];portConstraint=eastwest;rotatable=0;whiteSpace=wrap;html=1;shape=mxgraph.bootstrap.bottomButton;rSize=5;fontColor=#333333;" vertex="1" parent="PXGm19Z-OeBb5GkZ7l5b-42">
          <mxGeometry y="60" width="60" height="30" as="geometry" />
        </mxCell>
        <mxCell id="PXGm19Z-OeBb5GkZ7l5b-46" value="" style="swimlane;fontStyle=0;childLayout=stackLayout;horizontal=1;startSize=0;horizontalStack=0;resizeParent=1;resizeParentMax=0;resizeLast=0;collapsible=0;marginBottom=0;whiteSpace=wrap;html=1;strokeColor=none;fillColor=none;" vertex="1" parent="PXGm19Z-OeBb5GkZ7l5b-32">
          <mxGeometry x="470" y="55" width="100" height="90" as="geometry" />
        </mxCell>
        <mxCell id="PXGm19Z-OeBb5GkZ7l5b-47" value="2025-01-01" style="text;strokeColor=#DFDFDF;fillColor=#FFFFFF;align=right;verticalAlign=middle;spacingLeft=10;spacingRight=10;overflow=hidden;points=[[0,0.5],[1,0.5]];portConstraint=eastwest;rotatable=0;whiteSpace=wrap;html=1;shape=mxgraph.bootstrap.topButton;rSize=5;fontColor=#333333;" vertex="1" parent="PXGm19Z-OeBb5GkZ7l5b-46">
          <mxGeometry width="100" height="30" as="geometry" />
        </mxCell>
        <mxCell id="PXGm19Z-OeBb5GkZ7l5b-48" value="2025-01-01" style="text;strokeColor=#DFDFDF;fillColor=#FFFFFF;align=right;verticalAlign=middle;spacingLeft=10;spacingRight=10;overflow=hidden;points=[[0,0.5],[1,0.5]];portConstraint=eastwest;rotatable=0;whiteSpace=wrap;html=1;rSize=5;fontColor=#333333;" vertex="1" parent="PXGm19Z-OeBb5GkZ7l5b-46">
          <mxGeometry y="30" width="100" height="30" as="geometry" />
        </mxCell>
        <mxCell id="PXGm19Z-OeBb5GkZ7l5b-49" value="2025-01-01" style="text;strokeColor=#DFDFDF;fillColor=#FFFFFF;align=right;verticalAlign=middle;spacingLeft=10;spacingRight=10;overflow=hidden;points=[[0,0.5],[1,0.5]];portConstraint=eastwest;rotatable=0;whiteSpace=wrap;html=1;shape=mxgraph.bootstrap.bottomButton;rSize=5;fontColor=#333333;" vertex="1" parent="PXGm19Z-OeBb5GkZ7l5b-46">
          <mxGeometry y="60" width="100" height="30" as="geometry" />
        </mxCell>
        <mxCell id="PXGm19Z-OeBb5GkZ7l5b-51" value="Name" style="text;html=1;align=left;verticalAlign=middle;resizable=0;points=[];autosize=1;strokeColor=none;fillColor=none;" vertex="1" parent="PXGm19Z-OeBb5GkZ7l5b-32">
          <mxGeometry x="10" y="28.5" width="60" height="30" as="geometry" />
        </mxCell>
        <mxCell id="PXGm19Z-OeBb5GkZ7l5b-52" value="Description" style="text;html=1;align=left;verticalAlign=middle;resizable=0;points=[];autosize=1;strokeColor=none;fillColor=none;" vertex="1" parent="PXGm19Z-OeBb5GkZ7l5b-32">
          <mxGeometry x="210" y="28.5" width="80" height="30" as="geometry" />
        </mxCell>
        <mxCell id="PXGm19Z-OeBb5GkZ7l5b-53" value="Rows" style="text;html=1;align=left;verticalAlign=middle;resizable=0;points=[];autosize=1;strokeColor=none;fillColor=none;" vertex="1" parent="PXGm19Z-OeBb5GkZ7l5b-32">
          <mxGeometry x="410" y="28.5" width="50" height="30" as="geometry" />
        </mxCell>
        <mxCell id="PXGm19Z-OeBb5GkZ7l5b-54" value="Last Modified" style="text;html=1;align=left;verticalAlign=middle;resizable=0;points=[];autosize=1;strokeColor=none;fillColor=none;" vertex="1" parent="PXGm19Z-OeBb5GkZ7l5b-32">
          <mxGeometry x="470" y="28.5" width="90" height="30" as="geometry" />
        </mxCell>
        <mxCell id="PXGm19Z-OeBb5GkZ7l5b-55" value="Request access&amp;nbsp; &amp;nbsp; &amp;nbsp; &amp;nbsp; &amp;nbsp; &amp;nbsp; &amp;nbsp;&amp;nbsp;" style="swimlane;whiteSpace=wrap;html=1;startSize=30;align=right;" collapsed="1" vertex="1" parent="PXGm19Z-OeBb5GkZ7l5b-28">
          <mxGeometry x="40" y="510" width="610" height="30" as="geometry">
            <mxRectangle x="40" y="510" width="610" height="150" as="alternateBounds" />
          </mxGeometry>
        </mxCell>
        <mxCell id="PXGm19Z-OeBb5GkZ7l5b-77" value="Send Request" style="rounded=0;whiteSpace=wrap;html=1;" vertex="1" parent="PXGm19Z-OeBb5GkZ7l5b-55">
          <mxGeometry x="480" y="100" width="120" height="30" as="geometry" />
        </mxCell>
        <mxCell id="PXGm19Z-OeBb5GkZ7l5b-78" value="" style="rounded=0;whiteSpace=wrap;html=1;" vertex="1" parent="PXGm19Z-OeBb5GkZ7l5b-55">
          <mxGeometry x="10" y="40" width="590" height="50" as="geometry" />
        </mxCell>
        <mxCell id="PXGm19Z-OeBb5GkZ7l5b-79" value="&lt;i&gt;User&lt;/i&gt;" style="rounded=0;whiteSpace=wrap;html=1;" vertex="1" parent="PXGm19Z-OeBb5GkZ7l5b-55">
          <mxGeometry x="10" y="100" width="270" height="30" as="geometry" />
        </mxCell>
        <mxCell id="PXGm19Z-OeBb5GkZ7l5b-80" value="Reason for request" style="text;html=1;align=center;verticalAlign=middle;resizable=0;points=[];autosize=1;strokeColor=none;fillColor=none;fontStyle=2" vertex="1" parent="PXGm19Z-OeBb5GkZ7l5b-55">
          <mxGeometry y="40" width="130" height="30" as="geometry" />
        </mxCell>
        <mxCell id="PXGm19Z-OeBb5GkZ7l5b-82" value="" style="triangle;whiteSpace=wrap;html=1;rotation=90;" vertex="1" parent="PXGm19Z-OeBb5GkZ7l5b-28">
          <mxGeometry x="620" y="512" width="20" height="30" as="geometry" />
        </mxCell>
        <mxCell id="PXGm19Z-OeBb5GkZ7l5b-83" value="Owner:" style="text;html=1;align=left;verticalAlign=middle;resizable=0;points=[];autosize=1;strokeColor=none;fillColor=none;" vertex="1" parent="PXGm19Z-OeBb5GkZ7l5b-28">
          <mxGeometry x="40" y="50" width="60" height="30" as="geometry" />
        </mxCell>
        <mxCell id="PXGm19Z-OeBb5GkZ7l5b-84" value="Maturity:" style="text;html=1;align=left;verticalAlign=middle;resizable=0;points=[];autosize=1;strokeColor=none;fillColor=none;" vertex="1" parent="PXGm19Z-OeBb5GkZ7l5b-28">
          <mxGeometry x="40" y="80" width="70" height="30" as="geometry" />
        </mxCell>
        <mxCell id="PXGm19Z-OeBb5GkZ7l5b-85" value="Last Change:" style="text;html=1;align=left;verticalAlign=middle;resizable=0;points=[];autosize=1;strokeColor=none;fillColor=none;" vertex="1" parent="PXGm19Z-OeBb5GkZ7l5b-28">
          <mxGeometry x="440" y="50" width="90" height="30" as="geometry" />
        </mxCell>
        <mxCell id="PXGm19Z-OeBb5GkZ7l5b-86" value="Number of Tables:" style="text;html=1;align=left;verticalAlign=middle;resizable=0;points=[];autosize=1;strokeColor=none;fillColor=none;" vertex="1" parent="PXGm19Z-OeBb5GkZ7l5b-28">
          <mxGeometry x="440" y="80" width="120" height="30" as="geometry" />
        </mxCell>
        <mxCell id="PXGm19Z-OeBb5GkZ7l5b-125" value="Advanced Filters" style="swimlane;whiteSpace=wrap;html=1;startSize=30;fillColor=#f5f5f5;fontColor=#333333;strokeColor=#666666;" vertex="1" parent="1">
          <mxGeometry x="-670" y="200" width="640" height="300" as="geometry">
            <mxRectangle x="-670" y="200" width="640" height="30" as="alternateBounds" />
          </mxGeometry>
        </mxCell>
        <mxCell id="PXGm19Z-OeBb5GkZ7l5b-126" value="Catalog Name" style="rounded=0;whiteSpace=wrap;html=1;fontStyle=2" vertex="1" parent="PXGm19Z-OeBb5GkZ7l5b-125">
          <mxGeometry x="40" y="40" width="270" height="30" as="geometry" />
        </mxCell>
        <mxCell id="PXGm19Z-OeBb5GkZ7l5b-127" value="Table Name" style="rounded=0;whiteSpace=wrap;html=1;fontStyle=2" vertex="1" parent="PXGm19Z-OeBb5GkZ7l5b-125">
          <mxGeometry x="330" y="40" width="270" height="30" as="geometry" />
        </mxCell>
        <mxCell id="PXGm19Z-OeBb5GkZ7l5b-128" value="Catalog Description" style="rounded=0;whiteSpace=wrap;html=1;fontStyle=2" vertex="1" parent="PXGm19Z-OeBb5GkZ7l5b-125">
          <mxGeometry x="40" y="80" width="270" height="30" as="geometry" />
        </mxCell>
        <mxCell id="PXGm19Z-OeBb5GkZ7l5b-129" value="Table Description" style="rounded=0;whiteSpace=wrap;html=1;fontStyle=2" vertex="1" parent="PXGm19Z-OeBb5GkZ7l5b-125">
          <mxGeometry x="330" y="80" width="270" height="30" as="geometry" />
        </mxCell>
        <mxCell id="PXGm19Z-OeBb5GkZ7l5b-130" value="Table tags" style="swimlane;whiteSpace=wrap;html=1;startSize=30;" collapsed="1" vertex="1" parent="PXGm19Z-OeBb5GkZ7l5b-125">
          <mxGeometry x="330" y="120" width="270" height="30" as="geometry">
            <mxRectangle x="330" y="120" width="270" height="120" as="alternateBounds" />
          </mxGeometry>
        </mxCell>
        <mxCell id="PXGm19Z-OeBb5GkZ7l5b-131" value="Catalog Owner" style="swimlane;whiteSpace=wrap;html=1;startSize=30;" vertex="1" parent="PXGm19Z-OeBb5GkZ7l5b-125">
          <mxGeometry x="40" y="160" width="270" height="120" as="geometry">
            <mxRectangle x="40" y="160" width="270" height="30" as="alternateBounds" />
          </mxGeometry>
        </mxCell>
        <mxCell id="PXGm19Z-OeBb5GkZ7l5b-132" value="Catalog tags" style="swimlane;whiteSpace=wrap;html=1;startSize=30;" collapsed="1" vertex="1" parent="PXGm19Z-OeBb5GkZ7l5b-125">
          <mxGeometry x="40" y="120" width="270" height="30" as="geometry">
            <mxRectangle x="40" y="120" width="270" height="120" as="alternateBounds" />
          </mxGeometry>
        </mxCell>
        <mxCell id="PXGm19Z-OeBb5GkZ7l5b-133" value="" style="triangle;whiteSpace=wrap;html=1;rotation=-180;" vertex="1" parent="PXGm19Z-OeBb5GkZ7l5b-125">
          <mxGeometry x="618" y="5" width="16" height="20" as="geometry" />
        </mxCell>
        <mxCell id="PXGm19Z-OeBb5GkZ7l5b-135" value="&amp;nbsp; &amp;nbsp; &amp;nbsp; Request access&amp;nbsp; &amp;nbsp; &amp;nbsp; &amp;nbsp; &amp;nbsp; &amp;nbsp; &amp;nbsp;&amp;nbsp;" style="swimlane;whiteSpace=wrap;html=1;startSize=30;align=left;" vertex="1" parent="1">
          <mxGeometry x="1800" y="670" width="610" height="150" as="geometry">
            <mxRectangle x="1750" y="670" width="610" height="30" as="alternateBounds" />
          </mxGeometry>
        </mxCell>
        <mxCell id="PXGm19Z-OeBb5GkZ7l5b-136" value="Send Request" style="rounded=0;whiteSpace=wrap;html=1;" vertex="1" parent="PXGm19Z-OeBb5GkZ7l5b-135">
          <mxGeometry x="480" y="100" width="120" height="30" as="geometry" />
        </mxCell>
        <mxCell id="PXGm19Z-OeBb5GkZ7l5b-137" value="" style="rounded=0;whiteSpace=wrap;html=1;" vertex="1" parent="PXGm19Z-OeBb5GkZ7l5b-135">
          <mxGeometry x="10" y="40" width="590" height="50" as="geometry" />
        </mxCell>
        <mxCell id="PXGm19Z-OeBb5GkZ7l5b-138" value="&lt;i&gt;User&lt;/i&gt;" style="rounded=0;whiteSpace=wrap;html=1;" vertex="1" parent="PXGm19Z-OeBb5GkZ7l5b-135">
          <mxGeometry x="10" y="100" width="270" height="30" as="geometry" />
        </mxCell>
        <mxCell id="PXGm19Z-OeBb5GkZ7l5b-139" value="Reason for request" style="text;html=1;align=center;verticalAlign=middle;resizable=0;points=[];autosize=1;strokeColor=none;fillColor=none;fontStyle=2" vertex="1" parent="PXGm19Z-OeBb5GkZ7l5b-135">
          <mxGeometry y="40" width="130" height="30" as="geometry" />
        </mxCell>
        <mxCell id="PXGm19Z-OeBb5GkZ7l5b-140" value="" style="triangle;whiteSpace=wrap;html=1;rotation=-180;" vertex="1" parent="PXGm19Z-OeBb5GkZ7l5b-135">
          <mxGeometry x="584" y="6" width="16" height="20" as="geometry" />
        </mxCell>
        <mxCell id="PXGm19Z-OeBb5GkZ7l5b-124" value="links" visible="0" parent="0" />
        <mxCell id="PXGm19Z-OeBb5GkZ7l5b-123" value="" style="shape=flexArrow;endArrow=classic;html=1;rounded=0;exitX=0.004;exitY=0.041;exitDx=0;exitDy=0;exitPerimeter=0;" edge="1" parent="PXGm19Z-OeBb5GkZ7l5b-124" source="PXGm19Z-OeBb5GkZ7l5b-28">
          <mxGeometry width="50" height="50" relative="1" as="geometry">
            <mxPoint x="1000" y="500" as="sourcePoint" />
            <mxPoint x="740" y="340" as="targetPoint" />
          </mxGeometry>
        </mxCell>
        <mxCell id="PXGm19Z-OeBb5GkZ7l5b-141" value="" style="shape=flexArrow;endArrow=classic;html=1;rounded=0;exitX=-0.001;exitY=0.127;exitDx=0;exitDy=0;exitPerimeter=0;" edge="1" parent="PXGm19Z-OeBb5GkZ7l5b-124" source="PXGm19Z-OeBb5GkZ7l5b-135">
          <mxGeometry width="50" height="50" relative="1" as="geometry">
            <mxPoint x="1203" y="220" as="sourcePoint" />
            <mxPoint x="1650" y="690" as="targetPoint" />
          </mxGeometry>
        </mxCell>
        <mxCell id="PXGm19Z-OeBb5GkZ7l5b-142" value="" style="shape=flexArrow;endArrow=classic;html=1;rounded=0;entryX=0;entryY=0.5;entryDx=0;entryDy=0;" edge="1" parent="PXGm19Z-OeBb5GkZ7l5b-124" target="PXGm19Z-OeBb5GkZ7l5b-6">
          <mxGeometry width="50" height="50" relative="1" as="geometry">
            <mxPoint x="-20" y="215" as="sourcePoint" />
            <mxPoint x="-250" y="561" as="targetPoint" />
          </mxGeometry>
        </mxCell>
      </root>
    </mxGraphModel>
  </diagram>
</mxfile>
